<mxfile host="app.diagrams.net" modified="2021-11-22T10:45:02.508Z" agent="5.0 (Windows NT 10.0; Win64; x64) AppleWebKit/537.36 (KHTML, like Gecko) Chrome/95.0.4638.69 Safari/537.36" etag="kCbrzW1hdXfxPyUCZc26" version="15.8.3" type="github">
  <diagram id="C5RBs43oDa-KdzZeNtuy" name="Page-1">
    <mxGraphModel dx="981" dy="497" grid="1" gridSize="10" guides="1" tooltips="1" connect="1" arrows="1" fold="1" page="1" pageScale="1" pageWidth="827" pageHeight="1169" math="0" shadow="0">
      <root>
        <mxCell id="WIyWlLk6GJQsqaUBKTNV-0" />
        <mxCell id="WIyWlLk6GJQsqaUBKTNV-1" parent="WIyWlLk6GJQsqaUBKTNV-0" />
        <mxCell id="zkfFHV4jXpPFQw0GAbJ--0" value="Monopoli&#xa;" style="swimlane;fontStyle=2;align=center;verticalAlign=top;childLayout=stackLayout;horizontal=1;startSize=26;horizontalStack=0;resizeParent=1;resizeLast=0;collapsible=1;marginBottom=0;rounded=0;shadow=0;strokeWidth=1;" parent="WIyWlLk6GJQsqaUBKTNV-1" vertex="1">
          <mxGeometry x="70" y="130" width="160" height="138" as="geometry">
            <mxRectangle x="230" y="140" width="160" height="26" as="alternateBounds" />
          </mxGeometry>
        </mxCell>
        <mxCell id="zkfFHV4jXpPFQw0GAbJ--1" value="nopat" style="text;align=left;verticalAlign=top;spacingLeft=4;spacingRight=4;overflow=hidden;rotatable=0;points=[[0,0.5],[1,0.5]];portConstraint=eastwest;" parent="zkfFHV4jXpPFQw0GAbJ--0" vertex="1">
          <mxGeometry y="26" width="160" height="26" as="geometry" />
        </mxCell>
        <mxCell id="zkfFHV4jXpPFQw0GAbJ--2" value="pelaajat" style="text;align=left;verticalAlign=top;spacingLeft=4;spacingRight=4;overflow=hidden;rotatable=0;points=[[0,0.5],[1,0.5]];portConstraint=eastwest;rounded=0;shadow=0;html=0;" parent="zkfFHV4jXpPFQw0GAbJ--0" vertex="1">
          <mxGeometry y="52" width="160" height="26" as="geometry" />
        </mxCell>
        <mxCell id="zkfFHV4jXpPFQw0GAbJ--3" value="pelilauta" style="text;align=left;verticalAlign=top;spacingLeft=4;spacingRight=4;overflow=hidden;rotatable=0;points=[[0,0.5],[1,0.5]];portConstraint=eastwest;rounded=0;shadow=0;html=0;" parent="zkfFHV4jXpPFQw0GAbJ--0" vertex="1">
          <mxGeometry y="78" width="160" height="26" as="geometry" />
        </mxCell>
        <mxCell id="V1qIRLjVwAq2X2yEXW3Z-39" value="" style="endArrow=none;html=1;rounded=0;verticalAlign=top;exitX=0;exitY=0.5;exitDx=0;exitDy=0;entryX=0;entryY=0.5;entryDx=0;entryDy=0;edgeStyle=orthogonalEdgeStyle;endFill=0;" edge="1" parent="zkfFHV4jXpPFQw0GAbJ--0" source="zkfFHV4jXpPFQw0GAbJ--5" target="V1qIRLjVwAq2X2yEXW3Z-38">
          <mxGeometry relative="1" as="geometry">
            <mxPoint x="200" y="250" as="sourcePoint" />
            <mxPoint x="360" y="250" as="targetPoint" />
            <Array as="points">
              <mxPoint x="-20" y="117" />
              <mxPoint x="-20" y="230" />
            </Array>
          </mxGeometry>
        </mxCell>
        <mxCell id="V1qIRLjVwAq2X2yEXW3Z-41" value="1" style="edgeLabel;resizable=0;html=1;align=left;verticalAlign=bottom;" connectable="0" vertex="1" parent="V1qIRLjVwAq2X2yEXW3Z-39">
          <mxGeometry x="-1" relative="1" as="geometry">
            <mxPoint x="-20" as="offset" />
          </mxGeometry>
        </mxCell>
        <mxCell id="V1qIRLjVwAq2X2yEXW3Z-42" value="*" style="edgeLabel;resizable=0;html=1;align=right;verticalAlign=bottom;" connectable="0" vertex="1" parent="V1qIRLjVwAq2X2yEXW3Z-39">
          <mxGeometry x="1" relative="1" as="geometry">
            <mxPoint x="-10" as="offset" />
          </mxGeometry>
        </mxCell>
        <mxCell id="zkfFHV4jXpPFQw0GAbJ--5" value="kadut" style="text;align=left;verticalAlign=top;spacingLeft=4;spacingRight=4;overflow=hidden;rotatable=0;points=[[0,0.5],[1,0.5]];portConstraint=eastwest;" parent="zkfFHV4jXpPFQw0GAbJ--0" vertex="1">
          <mxGeometry y="104" width="160" height="20" as="geometry" />
        </mxCell>
        <mxCell id="V1qIRLjVwAq2X2yEXW3Z-0" value="Ruudut" style="swimlane;" vertex="1" parent="WIyWlLk6GJQsqaUBKTNV-1">
          <mxGeometry x="320" y="240" width="160" height="132" as="geometry" />
        </mxCell>
        <mxCell id="V1qIRLjVwAq2X2yEXW3Z-7" value="id" style="text;align=left;verticalAlign=top;spacingLeft=4;spacingRight=4;overflow=hidden;rotatable=0;points=[[0,0.5],[1,0.5]];portConstraint=eastwest;" vertex="1" parent="V1qIRLjVwAq2X2yEXW3Z-0">
          <mxGeometry y="25" width="160" height="26" as="geometry" />
        </mxCell>
        <mxCell id="V1qIRLjVwAq2X2yEXW3Z-8" value="tyyppi" style="text;align=left;verticalAlign=top;spacingLeft=4;spacingRight=4;overflow=hidden;rotatable=0;points=[[0,0.5],[1,0.5]];portConstraint=eastwest;" vertex="1" parent="V1qIRLjVwAq2X2yEXW3Z-0">
          <mxGeometry y="48" width="160" height="26" as="geometry" />
        </mxCell>
        <mxCell id="V1qIRLjVwAq2X2yEXW3Z-9" value="seuraavaruutu" style="text;align=left;verticalAlign=top;spacingLeft=4;spacingRight=4;overflow=hidden;rotatable=0;points=[[0,0.5],[1,0.5]];portConstraint=eastwest;" vertex="1" parent="V1qIRLjVwAq2X2yEXW3Z-0">
          <mxGeometry y="106" width="160" height="26" as="geometry" />
        </mxCell>
        <mxCell id="V1qIRLjVwAq2X2yEXW3Z-26" value="sijainti" style="text;align=left;verticalAlign=top;spacingLeft=4;spacingRight=4;overflow=hidden;rotatable=0;points=[[0,0.5],[1,0.5]];portConstraint=eastwest;" vertex="1" parent="V1qIRLjVwAq2X2yEXW3Z-0">
          <mxGeometry y="74" width="160" height="26" as="geometry" />
        </mxCell>
        <mxCell id="V1qIRLjVwAq2X2yEXW3Z-2" value="" style="endArrow=none;html=1;verticalAlign=top;exitX=1;exitY=0.5;exitDx=0;exitDy=0;endFill=0;entryX=0;entryY=0.5;entryDx=0;entryDy=0;rounded=0;edgeStyle=orthogonalEdgeStyle;" edge="1" parent="WIyWlLk6GJQsqaUBKTNV-1" source="zkfFHV4jXpPFQw0GAbJ--3" target="V1qIRLjVwAq2X2yEXW3Z-8">
          <mxGeometry relative="1" as="geometry">
            <mxPoint x="160" y="210" as="sourcePoint" />
            <mxPoint x="320" y="221" as="targetPoint" />
          </mxGeometry>
        </mxCell>
        <mxCell id="V1qIRLjVwAq2X2yEXW3Z-4" value="1" style="edgeLabel;resizable=0;html=1;align=left;verticalAlign=bottom;" connectable="0" vertex="1" parent="V1qIRLjVwAq2X2yEXW3Z-2">
          <mxGeometry x="-1" relative="1" as="geometry" />
        </mxCell>
        <mxCell id="V1qIRLjVwAq2X2yEXW3Z-5" value="40" style="edgeLabel;resizable=0;html=1;align=right;verticalAlign=bottom;" connectable="0" vertex="1" parent="V1qIRLjVwAq2X2yEXW3Z-2">
          <mxGeometry x="1" relative="1" as="geometry">
            <mxPoint y="-1" as="offset" />
          </mxGeometry>
        </mxCell>
        <mxCell id="V1qIRLjVwAq2X2yEXW3Z-10" value="Pelaajat" style="swimlane;" vertex="1" parent="WIyWlLk6GJQsqaUBKTNV-1">
          <mxGeometry x="320" y="40" width="160" height="160" as="geometry" />
        </mxCell>
        <mxCell id="V1qIRLjVwAq2X2yEXW3Z-11" value="id" style="text;align=left;verticalAlign=top;spacingLeft=4;spacingRight=4;overflow=hidden;rotatable=0;points=[[0,0.5],[1,0.5]];portConstraint=eastwest;" vertex="1" parent="V1qIRLjVwAq2X2yEXW3Z-10">
          <mxGeometry y="22" width="160" height="26" as="geometry" />
        </mxCell>
        <mxCell id="V1qIRLjVwAq2X2yEXW3Z-12" value="nappula" style="text;align=left;verticalAlign=top;spacingLeft=4;spacingRight=4;overflow=hidden;rotatable=0;points=[[0,0.5],[1,0.5]];portConstraint=eastwest;" vertex="1" parent="V1qIRLjVwAq2X2yEXW3Z-10">
          <mxGeometry y="48" width="160" height="26" as="geometry" />
        </mxCell>
        <mxCell id="V1qIRLjVwAq2X2yEXW3Z-13" value="sijainti" style="text;align=left;verticalAlign=top;spacingLeft=4;spacingRight=4;overflow=hidden;rotatable=0;points=[[0,0.5],[1,0.5]];portConstraint=eastwest;" vertex="1" parent="V1qIRLjVwAq2X2yEXW3Z-10">
          <mxGeometry y="74" width="160" height="26" as="geometry" />
        </mxCell>
        <mxCell id="V1qIRLjVwAq2X2yEXW3Z-35" value="rahaa" style="text;align=left;verticalAlign=top;spacingLeft=4;spacingRight=4;overflow=hidden;rotatable=0;points=[[0,0.5],[1,0.5]];portConstraint=eastwest;" vertex="1" parent="V1qIRLjVwAq2X2yEXW3Z-10">
          <mxGeometry y="100" width="160" height="26" as="geometry" />
        </mxCell>
        <mxCell id="V1qIRLjVwAq2X2yEXW3Z-37" value="omistetut_kadut" style="text;align=left;verticalAlign=top;spacingLeft=4;spacingRight=4;overflow=hidden;rotatable=0;points=[[0,0.5],[1,0.5]];portConstraint=eastwest;" vertex="1" parent="V1qIRLjVwAq2X2yEXW3Z-10">
          <mxGeometry y="126" width="160" height="26" as="geometry" />
        </mxCell>
        <mxCell id="V1qIRLjVwAq2X2yEXW3Z-14" value="" style="endArrow=none;html=1;rounded=0;verticalAlign=top;exitX=1;exitY=0.5;exitDx=0;exitDy=0;entryX=0;entryY=0.5;entryDx=0;entryDy=0;edgeStyle=orthogonalEdgeStyle;endFill=0;" edge="1" parent="WIyWlLk6GJQsqaUBKTNV-1" source="zkfFHV4jXpPFQw0GAbJ--2" target="V1qIRLjVwAq2X2yEXW3Z-11">
          <mxGeometry relative="1" as="geometry">
            <mxPoint x="260" y="190" as="sourcePoint" />
            <mxPoint x="420" y="190" as="targetPoint" />
          </mxGeometry>
        </mxCell>
        <mxCell id="V1qIRLjVwAq2X2yEXW3Z-16" value="1" style="edgeLabel;resizable=0;html=1;align=left;verticalAlign=bottom;" connectable="0" vertex="1" parent="V1qIRLjVwAq2X2yEXW3Z-14">
          <mxGeometry x="-1" relative="1" as="geometry" />
        </mxCell>
        <mxCell id="V1qIRLjVwAq2X2yEXW3Z-17" value="2-8" style="edgeLabel;resizable=0;html=1;align=right;verticalAlign=bottom;" connectable="0" vertex="1" parent="V1qIRLjVwAq2X2yEXW3Z-14">
          <mxGeometry x="1" relative="1" as="geometry">
            <mxPoint x="-8" y="-13" as="offset" />
          </mxGeometry>
        </mxCell>
        <mxCell id="V1qIRLjVwAq2X2yEXW3Z-18" value="Ruututyypit" style="swimlane;" vertex="1" parent="WIyWlLk6GJQsqaUBKTNV-1">
          <mxGeometry x="540.03" y="242" width="160" height="128" as="geometry" />
        </mxCell>
        <mxCell id="V1qIRLjVwAq2X2yEXW3Z-19" value="id" style="text;align=left;verticalAlign=top;spacingLeft=4;spacingRight=4;overflow=hidden;rotatable=0;points=[[0,0.5],[1,0.5]];portConstraint=eastwest;" vertex="1" parent="V1qIRLjVwAq2X2yEXW3Z-18">
          <mxGeometry y="23" width="150" height="26" as="geometry" />
        </mxCell>
        <mxCell id="V1qIRLjVwAq2X2yEXW3Z-20" value="toiminto()" style="text;align=left;verticalAlign=top;spacingLeft=4;spacingRight=4;overflow=hidden;rotatable=0;points=[[0,0.5],[1,0.5]];portConstraint=eastwest;" vertex="1" parent="V1qIRLjVwAq2X2yEXW3Z-18">
          <mxGeometry y="96" width="150" height="26" as="geometry" />
        </mxCell>
        <mxCell id="V1qIRLjVwAq2X2yEXW3Z-25" value="nimi" style="text;align=left;verticalAlign=top;spacingLeft=4;spacingRight=4;overflow=hidden;rotatable=0;points=[[0,0.5],[1,0.5]];portConstraint=eastwest;" vertex="1" parent="V1qIRLjVwAq2X2yEXW3Z-18">
          <mxGeometry y="44" width="150" height="26" as="geometry" />
        </mxCell>
        <mxCell id="V1qIRLjVwAq2X2yEXW3Z-34" value="" style="line;html=1;strokeWidth=1;align=left;verticalAlign=middle;spacingTop=-1;spacingLeft=3;spacingRight=3;rotatable=0;labelPosition=right;points=[];portConstraint=eastwest;" vertex="1" parent="V1qIRLjVwAq2X2yEXW3Z-18">
          <mxGeometry y="88" width="160" height="8" as="geometry" />
        </mxCell>
        <mxCell id="V1qIRLjVwAq2X2yEXW3Z-21" value="" style="endArrow=none;html=1;rounded=0;verticalAlign=top;exitX=1.002;exitY=0.683;exitDx=0;exitDy=0;exitPerimeter=0;entryX=0;entryY=0.5;entryDx=0;entryDy=0;endFill=0;" edge="1" parent="WIyWlLk6GJQsqaUBKTNV-1" source="V1qIRLjVwAq2X2yEXW3Z-8" target="V1qIRLjVwAq2X2yEXW3Z-18">
          <mxGeometry relative="1" as="geometry">
            <mxPoint x="500" y="198.66" as="sourcePoint" />
            <mxPoint x="660" y="198.66" as="targetPoint" />
          </mxGeometry>
        </mxCell>
        <mxCell id="V1qIRLjVwAq2X2yEXW3Z-23" value="1" style="edgeLabel;resizable=0;html=1;align=left;verticalAlign=bottom;" connectable="0" vertex="1" parent="V1qIRLjVwAq2X2yEXW3Z-21">
          <mxGeometry x="-1" relative="1" as="geometry" />
        </mxCell>
        <mxCell id="V1qIRLjVwAq2X2yEXW3Z-24" value="1" style="edgeLabel;resizable=0;html=1;align=right;verticalAlign=bottom;" connectable="0" vertex="1" parent="V1qIRLjVwAq2X2yEXW3Z-21">
          <mxGeometry x="1" relative="1" as="geometry" />
        </mxCell>
        <mxCell id="V1qIRLjVwAq2X2yEXW3Z-27" value="Nopat" style="swimlane;" vertex="1" parent="WIyWlLk6GJQsqaUBKTNV-1">
          <mxGeometry x="70" y="460" width="160" height="130" as="geometry" />
        </mxCell>
        <mxCell id="V1qIRLjVwAq2X2yEXW3Z-28" value="id" style="text;align=left;verticalAlign=top;spacingLeft=4;spacingRight=4;overflow=hidden;rotatable=0;points=[[0,0.5],[1,0.5]];portConstraint=eastwest;" vertex="1" parent="V1qIRLjVwAq2X2yEXW3Z-27">
          <mxGeometry y="20" width="160" height="26" as="geometry" />
        </mxCell>
        <mxCell id="V1qIRLjVwAq2X2yEXW3Z-30" value="" style="endArrow=none;html=1;rounded=0;verticalAlign=top;exitX=0.005;exitY=0.694;exitDx=0;exitDy=0;exitPerimeter=0;edgeStyle=orthogonalEdgeStyle;endFill=0;entryX=0;entryY=0.5;entryDx=0;entryDy=0;" edge="1" parent="WIyWlLk6GJQsqaUBKTNV-1" source="zkfFHV4jXpPFQw0GAbJ--1" target="V1qIRLjVwAq2X2yEXW3Z-27">
          <mxGeometry relative="1" as="geometry">
            <mxPoint x="250" y="330" as="sourcePoint" />
            <mxPoint x="70" y="390" as="targetPoint" />
            <Array as="points">
              <mxPoint x="30" y="174" />
              <mxPoint x="30" y="525" />
            </Array>
          </mxGeometry>
        </mxCell>
        <mxCell id="V1qIRLjVwAq2X2yEXW3Z-32" value="1" style="edgeLabel;resizable=0;html=1;align=left;verticalAlign=bottom;" connectable="0" vertex="1" parent="V1qIRLjVwAq2X2yEXW3Z-30">
          <mxGeometry x="-1" relative="1" as="geometry">
            <mxPoint x="-21" y="-4" as="offset" />
          </mxGeometry>
        </mxCell>
        <mxCell id="V1qIRLjVwAq2X2yEXW3Z-33" value="2" style="edgeLabel;resizable=0;html=1;align=right;verticalAlign=bottom;" connectable="0" vertex="1" parent="V1qIRLjVwAq2X2yEXW3Z-30">
          <mxGeometry x="1" relative="1" as="geometry">
            <mxPoint x="-10" as="offset" />
          </mxGeometry>
        </mxCell>
        <mxCell id="V1qIRLjVwAq2X2yEXW3Z-36" value="Kortit" style="swimlane;" vertex="1" parent="WIyWlLk6GJQsqaUBKTNV-1">
          <mxGeometry x="320" y="420" width="160" height="140" as="geometry" />
        </mxCell>
        <mxCell id="V1qIRLjVwAq2X2yEXW3Z-38" value="Kadut" style="swimlane;" vertex="1" parent="WIyWlLk6GJQsqaUBKTNV-1">
          <mxGeometry x="70" y="290" width="160" height="140" as="geometry" />
        </mxCell>
        <mxCell id="V1qIRLjVwAq2X2yEXW3Z-43" value="id" style="text;align=left;verticalAlign=top;spacingLeft=4;spacingRight=4;overflow=hidden;rotatable=0;points=[[0,0.5],[1,0.5]];portConstraint=eastwest;" vertex="1" parent="V1qIRLjVwAq2X2yEXW3Z-38">
          <mxGeometry y="22" width="160" height="26" as="geometry" />
        </mxCell>
        <mxCell id="V1qIRLjVwAq2X2yEXW3Z-44" value="nimi" style="text;align=left;verticalAlign=top;spacingLeft=4;spacingRight=4;overflow=hidden;rotatable=0;points=[[0,0.5],[1,0.5]];portConstraint=eastwest;" vertex="1" parent="V1qIRLjVwAq2X2yEXW3Z-38">
          <mxGeometry y="48" width="160" height="26" as="geometry" />
        </mxCell>
        <mxCell id="V1qIRLjVwAq2X2yEXW3Z-45" value="omistaja" style="text;align=left;verticalAlign=top;spacingLeft=4;spacingRight=4;overflow=hidden;rotatable=0;points=[[0,0.5],[1,0.5]];portConstraint=eastwest;" vertex="1" parent="V1qIRLjVwAq2X2yEXW3Z-38">
          <mxGeometry y="74" width="160" height="26" as="geometry" />
        </mxCell>
        <mxCell id="V1qIRLjVwAq2X2yEXW3Z-46" value="rakennukset" style="text;align=left;verticalAlign=top;spacingLeft=4;spacingRight=4;overflow=hidden;rotatable=0;points=[[0,0.5],[1,0.5]];portConstraint=eastwest;" vertex="1" parent="V1qIRLjVwAq2X2yEXW3Z-38">
          <mxGeometry y="100" width="160" height="26" as="geometry" />
        </mxCell>
        <mxCell id="V1qIRLjVwAq2X2yEXW3Z-47" value="" style="endArrow=none;html=1;rounded=0;verticalAlign=top;entryX=-0.006;entryY=-0.007;entryDx=0;entryDy=0;entryPerimeter=0;edgeStyle=orthogonalEdgeStyle;endFill=0;" edge="1" parent="WIyWlLk6GJQsqaUBKTNV-1" target="V1qIRLjVwAq2X2yEXW3Z-12">
          <mxGeometry relative="1" as="geometry">
            <mxPoint x="230" y="380" as="sourcePoint" />
            <mxPoint x="390" y="380" as="targetPoint" />
            <Array as="points">
              <mxPoint x="250" y="380" />
              <mxPoint x="250" y="88" />
            </Array>
          </mxGeometry>
        </mxCell>
        <mxCell id="V1qIRLjVwAq2X2yEXW3Z-49" value="0-1" style="edgeLabel;resizable=0;html=1;align=left;verticalAlign=bottom;" connectable="0" vertex="1" parent="V1qIRLjVwAq2X2yEXW3Z-47">
          <mxGeometry x="-1" relative="1" as="geometry" />
        </mxCell>
        <mxCell id="V1qIRLjVwAq2X2yEXW3Z-50" value="1" style="edgeLabel;resizable=0;html=1;align=right;verticalAlign=bottom;" connectable="0" vertex="1" parent="V1qIRLjVwAq2X2yEXW3Z-47">
          <mxGeometry x="1" relative="1" as="geometry" />
        </mxCell>
      </root>
    </mxGraphModel>
  </diagram>
</mxfile>
